{
  "accessors": [
    {
      "bufferView": 2,
      "componentType": 5126,
      "count": 7293,
      "max": [
        0.48214399814605713,
        2.0309600830078125,
        1.2453479766845703
      ],
      "min": [
        -0.4178900122642517,
        -2.0309600830078125,
        -0.5088099837303162
      ],
      "type": "VEC3"
    },
    {
      "bufferView": 2,
      "byteOffset": 87516,
      "componentType": 5126,
      "count": 7293,
      "max": [
        1.0,
        1.0,
        1.0
      ],
      "min": [
        -1.0,
        -1.0,
        -1.0
      ],
      "type": "VEC3"
    },
    {
      "bufferView": 3,
      "componentType": 5126,
      "count": 7293,
      "max": [
        1.0,
        1.0,
        1.0,
        1.0
      ],
      "min": [
        -1.0,
        -1.0,
        -1.0,
        -1.0
      ],
      "type": "VEC4"
    },
    {
      "bufferView": 1,
      "componentType": 5126,
      "count": 7293,
      "max": [
        0.9964879751205444,
        0.992497980594635
      ],
      "min": [
        0.007935999892652035,
        0.004883000161498785
      ],
      "type": "VEC2"
    },
    {
      "bufferView": 0,
      "componentType": 5125,
      "count": 21558,
      "type": "SCALAR"
    },
    {
      "bufferView": 2,
      "byteOffset": 175032,
      "componentType": 5126,
      "count": 494,
      "max": [
        0.39055800437927246,
        0.36007800698280334,
        1.2047920227050781
      ],
      "min": [
        -0.40175899863243103,
        -0.36007800698280334,
        0.019186999648809433
      ],
      "type": "VEC3"
    },
    {
      "bufferView": 2,
      "byteOffset": 180960,
      "componentType": 5126,
      "count": 494,
      "max": [
        1.0,
        1.0,
        1.0
      ],
      "min": [
        -1.0,
        -1.0,
        -1.0
      ],
      "type": "VEC3"
    },
    {
      "bufferView": 3,
      "byteOffset": 116688,
      "componentType": 5126,
      "count": 494,
      "max": [
        1.0,
        1.0,
        1.0,
        1.0
      ],
      "min": [
        -1.0,
        -1.0,
        -1.0,
        -1.0
      ],
      "type": "VEC4"
    },
    {
      "bufferView": 1,
      "byteOffset": 58344,
      "componentType": 5126,
      "count": 494,
      "max": [
        0.9942799806594849,
        0.9935070276260376
      ],
      "min": [
        0.008092000149190426,
        0.0059819999150931835
      ],
      "type": "VEC2"
    },
    {
      "bufferView": 0,
      "byteOffset": 86232,
      "componentType": 5125,
      "count": 1086,
      "type": "SCALAR"
    }
  ],
  "asset": {
    "extras": {
      "author": "assetfactory (https://sketchfab.com/assetfactory)",
      "license": "SKETCHFAB Standard (https://sketchfab.com/licenses)",
      "source": "https://sketchfab.com/3d-models/space-satellite-4e6485de34914ba4a493211f33616182",
      "title": "Space Satellite"
    },
    "generator": "Sketchfab-16.33.0",
    "version": "2.0"
  },
  "bufferViews": [
    {
      "buffer": 0,
      "byteLength": 90576,
      "name": "floatBufferViews",
      "target": 34963
    },
    {
      "buffer": 0,
      "byteLength": 62296,
      "byteOffset": 90576,
      "byteStride": 8,
      "name": "floatBufferViews",
      "target": 34962
    },
    {
      "buffer": 0,
      "byteLength": 186888,
      "byteOffset": 152872,
      "byteStride": 12,
      "name": "floatBufferViews",
      "target": 34962
    },
    {
      "buffer": 0,
      "byteLength": 124592,
      "byteOffset": 339760,
      "byteStride": 16,
      "name": "floatBufferViews",
      "target": 34962
    }
  ],
  "buffers": [
    {
      "byteLength": 464352,
      "uri": "scene.bin"
    }
  ],
  "images": [
    {
      "uri": "textures/Satellite_baseColor.jpeg"
    },
    {
      "uri": "textures/Satellite_metallicRoughness.png"
    },
    {
      "uri": "textures/Satellite_normal.png"
    },
    {
      "uri": "textures/Satellite2_baseColor.jpeg"
    },
    {
      "uri": "textures/Satellite2_metallicRoughness.png"
    },
    {
      "uri": "textures/Satellite2_normal.png"
    }
  ],
  "materials": [
    {
      "doubleSided": true,
      "name": "Satellite",
      "normalTexture": {
        "index": 2
      },
      "pbrMetallicRoughness": {
        "baseColorTexture": {
          "index": 0
        },
        "metallicRoughnessTexture": {
          "index": 1
        }
      }
    },
    {
      "doubleSided": true,
      "name": "Satellite2",
      "normalTexture": {
        "index": 5
      },
      "pbrMetallicRoughness": {
        "baseColorTexture": {
          "index": 3
        },
        "metallicRoughnessTexture": {
          "index": 4
        }
      }
    }
  ],
  "meshes": [
    {
      "name": "Object_0",
      "primitives": [
        {
          "attributes": {
            "NORMAL": 1,
            "POSITION": 0,
            "TANGENT": 2,
            "TEXCOORD_0": 3
          },
          "indices": 4,
          "material": 0,
          "mode": 4
        }
      ]
    },
    {
      "name": "Object_1",
      "primitives": [
        {
          "attributes": {
            "NORMAL": 6,
            "POSITION": 5,
            "TANGENT": 7,
            "TEXCOORD_0": 8
          },
          "indices": 9,
          "material": 1,
          "mode": 4
        }
      ]
    }
  ],
  "nodes": [
    {
      "children": [
        1
      ],
      "matrix": [
        1.0,
        0.0,
        0.0,
        0.0,
        0.0,
        2.220446049250313e-16,
        -1.0,
        0.0,
        0.0,
        1.0,
        2.220446049250313e-16,
        0.0,
        0.0,
        0.0,
        0.0,
        1.0
      ],
      "name": "Sketchfab_model"
    },
    {
      "children": [
        2,
        3
      ],
      "name": "Satellite2.obj.cleaner.materialmerger.gles"
    },
    {
      "mesh": 0,
      "name": "Object_2"
    },
    {
      "mesh": 1,
      "name": "Object_3"
    }
  ],
  "samplers": [
    {
      "magFilter": 9729,
      "minFilter": 9987,
      "wrapS": 10497,
      "wrapT": 10497
    }
  ],
  "scene": 0,
  "scenes": [
    {
      "name": "Sketchfab_Scene",
      "nodes": [
        0
      ]
    }
  ],
  "textures": [
    {
      "sampler": 0,
      "source": 0
    },
    {
      "sampler": 0,
      "source": 1
    },
    {
      "sampler": 0,
      "source": 2
    },
    {
      "sampler": 0,
      "source": 3
    },
    {
      "sampler": 0,
      "source": 4
    },
    {
      "sampler": 0,
      "source": 5
    }
  ]
}
